<?xml version="1.0" standalone="no"?> <!DOCTYPE svg PUBLIC "-//W3C//DTD SVG 1.0//EN" "http://www.w3.org/TR/2001/REC-SVG-20010904/DTD/svg10.dtd" > <svg xmlns="http://www.w3.org/2000/svg" width="100%" height="100%">
<defs >
<font id="modernmtstdextendeditalic" horiz-adv-x="409" ><font-face
    font-family="ModernMTStd-ExtendedItalic"
    units-per-em="1000"
    panose-1="2 2 5 5 5 5 5 9 3 3"
    ascent="689"
    descent="-311"
    alphabetic="0" />
<missing-glyph horiz-adv-x="607" d="M107 0V700H607V0H107ZM357 395L527 650H187L357 395ZM387 350L557 95V605L387 350ZM187 50H527L357 305L187 50ZM157 605V95L327 350L157 605Z" />
<glyph unicode=" " glyph-name="space" horiz-adv-x="250" />
<glyph unicode="!" glyph-name="exclam" horiz-adv-x="333" d="M131 178L118 182Q166 353 197 539Q199 553 203 571T215 615T237 658T270 675Q283 675 291 663T300 632Q300 588 242 466Q173 317 131 178ZM86 85Q106 85 119 72T132 39T119 7T86 -7T54 6T40 39T53
71T86 85Z" />
<glyph unicode="&quot;" glyph-name="quotedbl" horiz-adv-x="510" d="M234 392H217L188 585Q187 594 187 612Q187 677 225 677Q265 677 265 620Q265 606 262 585L234 392ZM375 392H358L329 585Q328 594 328 612Q328 677 366 677Q406 677 406 620Q406 606 403
585L375 392Z" />
<glyph unicode="#" glyph-name="numbersign" horiz-adv-x="668" d="M46 420V463H210L253 666H295L252 463H475L517 666H560L517 463H621V420H509L467 222H621V179H458L417 -23H373L416 179H193L151 -23H108L150 179H46V222H159L201 420H46ZM466 420H243L202 223H425L466
420Z" />
<glyph unicode="$" glyph-name="dollar" horiz-adv-x="510" d="M391 696H407L397 649Q438 631 464 600T490 530Q490 506 476 489T442 471Q426 471 414 484T402 516Q402 542 431 561Q447 573 447 581Q447 592 430 608T393 632L327 357Q356 328 370 310T399 257T414
181Q414 129 387 84T312 14Q286 0 240 -9L213 -122H196L223 -11Q183 -11 142 -3L112 -122H97L126 3Q22 46 22 122Q22 148 35 165T71 182Q90 182 102 169T114 136Q114 105 82 92Q64 86 64 76Q64 63 87 44T130 19L205 334Q122 406 122 491Q122 559 167 602T283 663L291
696H306L300 665Q345 665 382 656L391 696ZM230 443L279 644Q237 636 210 608T183 542Q183 533 185 523T190 506T199 489T208 474T219 458T230 443ZM313 369L377 640Q333 654 295 648L244 430L313 369ZM301 243L245 8Q296 19 325 50T354 128Q354 195 301 243ZM287
258L218 320L146 14Q182 3 226 6L287 258Z" />
<glyph unicode="%" glyph-name="percent" horiz-adv-x="1010" d="M337 337Q297 339 270 374T243 459Q243 538 302 611T424 685Q463 685 488 650T514 560Q514 483 458 410T337 337ZM335 351Q357 352 372 370T404 429Q425 481 440 541T456 627Q456 671 420 671T355
600Q333 547 317 486T301 395Q301 351 335 351ZM602 -26Q562 -24 535 11T508 96Q508 175 567 248T689 322Q728 322 753 287T779 197Q779 120 723 47T602 -26ZM600 -12Q622 -11 637 7T669 66Q690 118 705 178T721 264Q721 308 685 308T620 237Q598 184 582 123T566
32Q566 -12 600 -12ZM108 -26L867 687H916L157 -26H108Z" />
<glyph unicode="&amp;" glyph-name="ampersand" horiz-adv-x="844" d="M461 388Q575 440 575 534Q575 558 563 573T531 589Q461 589 461 388ZM195 132Q195 76 217 45T282 14Q326 14 396 59Q372 95 372 228Q372 275 378 345Q354 338 342 334T303 318T262 293T229
256T204 203T195 132ZM709 132H725Q713 106 703 90T668 46T608 4T524 -11Q448 -11 404 44Q318 -10 250 -10Q185 -10 140 30T95 128Q95 141 98 156T112 197T150 249T218 299Q295 340 379 361Q392 465 435 536T528 607Q556 607 573 586T591 531Q591 468 537 416Q509
389 462 370Q458 207 472 111Q522 156 582 252Q603 285 614 301T643 337T677 365T714 373Q739 373 755 353T772 301Q772 271 758 249T724 227Q708 227 698 238T688 268Q688 294 707 326Q716 341 716 348Q716 351 712 354T703 357Q692 357 680 349T651 321T626 288T597
246Q525 137 476 92Q490 46 508 29T558 11Q648 11 709 132Z" />
<glyph unicode="&apos;" glyph-name="quotesingle" horiz-adv-x="281" d="M200 392H183L154 585Q153 594 153 612Q153 677 191 677Q231 677 231 620Q231 606 228 585L200 392Z" />
<glyph unicode="(" glyph-name="parenleft" horiz-adv-x="510" d="M234 -196H218Q141 -45 141 115Q141 160 148 210T178 327T236 456T332 580T473 688L486 679Q446 650 426 631T381 578Q304 476 251 286T197 -7Q197 -96 234 -196Z" />
<glyph unicode=")" glyph-name="parenright" horiz-adv-x="510" d="M279 688H295Q372 537 372 377Q372 332 365 282T335 165T277 36T181 -88T40 -196L27 -187Q67 -158 87 -139T132 -86Q209 16 262 206T316 499Q316 588 279 688Z" />
<glyph unicode="*" glyph-name="asterisk" horiz-adv-x="521" d="M280 481L287 485Q287 519 270 563Q255 605 255 624T266 656T293 670T319 657T330 621Q330 602 316 566Q299 521 299 485L305 482Q334 498 367 538Q404 587 439 587Q454 587 464 577T474 552Q474
510 387 496Q335 487 312 470V463Q339 448 389 439Q474 426 474 381Q474 367 464 358T439 348Q404 348 371 392Q354 415 341 427T307 452L300 449Q300 413 318 366Q331 330 331 312Q331 291 321 277T295 263T268 277T256 311Q256 334 271 371Q287 413 287 449L280
452Q247 431 223 400Q182 348 147 348Q133 348 123 358T113 382Q113 423 195 438Q245 447 274 463V470Q250 486 198 495Q113 510 113 552Q113 566 123 575T148 585Q180 585 232 523Q259 491 280 481Z" />
<glyph unicode="+" glyph-name="plus" horiz-adv-x="666" d="M71 298V341H311V582H354V341H596V298H354V59H311V298H71Z" />
<glyph unicode="," glyph-name="comma" horiz-adv-x="281" d="M-1 -133L-5 -119Q49 -98 79 -68T110 -6Q110 2 105 2Q103 2 92 0T77 -2Q59 -2 47 11T34 45Q34 64 46 77T77 90Q103 90 118 71T133 18Q133 -32 98 -72T-1 -133Z" />
<glyph unicode="-" glyph-name="hyphen" horiz-adv-x="333" d="M75 198V239H288V198H75Z" />
<glyph unicode="." glyph-name="period" horiz-adv-x="281" d="M88 87Q108 86 122 72T136 39Q136 19 122 5T88 -10T54 4T39 39Q39 58 53 72T88 87Z" />
<glyph unicode="/" glyph-name="slash" horiz-adv-x="333" d="M45 -246L251 683H277L71 -246H45Z" />
<glyph unicode="0" glyph-name="zero" horiz-adv-x="510" d="M357 683Q415 681 448 624T481 470Q481 359 437 246T324 61T186 -11Q128 -11 92 49T56 205Q56 291 87 381T164 537T263 644T357 683ZM358 667Q288 664 245 561Q212 481 163 314T114 87Q114 47 133 26T186
4Q239 4 275 73T362 315Q392 422 400 454T416 520T423 582Q423 667 358 667Z" />
<glyph unicode="1" glyph-name="one" horiz-adv-x="510" d="M144 606H186Q302 606 385 679H408L233 66Q230 56 230 46Q230 15 281 15H349L344 0H7V15H74Q110 15 127 32T159 102L285 548Q287 556 287 561Q287 590 234 590H139L144 606Z" />
<glyph unicode="2" glyph-name="two" horiz-adv-x="510" d="M422 205H437Q411 110 363 50T262 -10Q218 -10 167 41Q127 81 99 81Q81 81 70 74T58 54Q58 50 65 37Q75 23 75 11Q75 -10 53 -10T31 27Q31 83 63 124T196 254Q198 255 260 311Q302 356 321 385T361 462Q385
520 385 570Q385 614 365 638T309 663Q249 663 185 607T121 510Q121 500 138 500Q163 500 179 484T195 444T179 403T141 386Q116 386 102 404T87 453Q87 535 163 608T324 682Q387 682 430 638T474 532Q474 491 459 456T413 390T358 341T291 294Q189 225 136 178T62
88Q98 101 135 101Q161 101 216 93Q261 85 288 85Q348 85 375 116T422 205Z" />
<glyph unicode="3" glyph-name="three" horiz-adv-x="510" d="M312 419Q343 453 363 501T384 589Q384 626 366 646T314 666Q279 666 245 649T211 614Q211 609 221 604Q244 592 244 566Q244 546 228 530T192 514Q176 514 166 526T155 558Q155 605 208 643T326 682Q388
682 427 650T466 565Q466 521 431 482T309 392Q278 372 276 371Q316 365 335 356Q381 334 406 290T431 194Q431 115 361 53T201 -10Q125 -10 76 32T27 138Q27 179 47 207T98 235Q115 235 127 222T140 190Q140 168 123 150T85 132Q83 132 72 135T57 138Q46 138 46
117Q46 78 87 44T176 9T254 42Q294 83 324 152T355 270Q355 310 334 332T276 355Q246 355 216 332Q202 321 196 321Q185 321 185 330Q185 342 228 363Q277 387 312 419Z" />
<glyph unicode="4" glyph-name="four" horiz-adv-x="510" d="M250 208L361 596L49 208H250ZM28 207L408 679H469L334 208H466L458 180H326L294 66Q291 56 291 45Q291 15 342 15H418L413 0H65L70 15H139Q171 15 187 29T214 80L241 180H28V207Z" />
<glyph unicode="5" glyph-name="five" horiz-adv-x="510" d="M119 341L245 682Q317 650 367 650Q424 650 466 682Q461 633 423 603T329 573Q297 573 229 595L156 395Q209 439 259 439Q327 439 376 382T426 245Q426 144 353 67T183 -10Q115 -10 72 30T29 136Q29
180 52 213T106 246Q124 246 136 233T148 201Q148 176 130 157T88 138Q86 138 72 143T56 148Q46 148 46 124Q46 77 81 43T164 8Q218 8 250 45Q287 86 314 167T342 314Q342 366 319 395T254 424Q186 424 136 341H119Z" />
<glyph unicode="6" glyph-name="six" horiz-adv-x="510" d="M210 5Q279 7 324 117Q346 172 361 235T377 329Q377 365 357 386T301 408Q254 408 216 372T159 285T129 189T119 113Q119 67 141 36T210 5ZM191 400L176 355Q214 394 240 409T301 424Q365 424 409 370T453
239Q453 146 380 68T220 -11Q147 -11 103 51T58 214Q58 320 106 430T230 611T380 682Q429 682 460 651T492 571Q492 540 475 518T433 496Q415 496 403 510T390 544Q390 571 405 588T447 606Q461 606 461 618Q461 635 437 650T385 666Q318 666 280 607T191 400Z"
/>
<glyph unicode="7" glyph-name="seven" horiz-adv-x="510" d="M112 439L198 683H213L177 576L189 586Q254 640 304 640Q350 640 369 588Q376 568 383 561T405 554Q428 554 450 573T473 613Q473 614 473 623T472 633Q472 681 494 681Q510 681 510 656Q510 608 432
491L414 463Q347 363 325 316T280 179L267 126Q248 50 231 19T189 -12Q149 -12 149 41Q149 84 176 142T230 240T310 348Q436 519 447 544L452 554Q451 554 450 553T446 551T441 549Q394 524 354 524Q325 524 308 536T280 579Q275 595 270 600T254 606Q250 606 245
605T225 596T196 573T165 527T133 452L129 439H112Z" />
<glyph unicode="8" glyph-name="eight" horiz-adv-x="510" d="M229 341L215 360Q182 407 170 438T158 506Q158 577 211 629T339 681Q395 681 434 643T473 551Q473 520 461 494T424 444T379 407T324 371Q356 335 373 312T406 253T421 178Q421 98 364 44T221 -10Q149
-10 95 37T41 147Q41 200 84 240T229 341ZM314 383Q330 393 340 400T371 424T403 459T425 504T435 562Q435 610 409 638T336 666Q285 666 251 635T216 556Q216 526 233 491T268 436T314 383ZM238 328Q213 313 200 305T162 276T124 236T99 188T88 125Q88 70 124
38T219 5Q280 5 320 40T360 128Q360 162 338 202T295 267T238 328Z" />
<glyph unicode="9" glyph-name="nine" horiz-adv-x="510" d="M346 292L355 322Q295 258 235 258Q171 258 128 309T85 435Q85 527 160 605T324 683Q394 683 435 625T476 467Q476 357 429 245T307 62T160 -10Q108 -10 74 19T39 92Q39 127 57 149T104 171Q122 171
134 159T147 128Q147 102 130 85T87 68H83Q79 69 78 69Q67 69 67 59Q67 40 95 23T157 6Q187 6 212 20T255 57T290 120T318 197T346 292ZM234 273Q290 275 327 315Q364 354 389 426T415 564Q415 614 393 641T330 668Q286 668 258 634Q216 586 191 491T165 352Q165
273 234 273Z" />
<glyph unicode=":" glyph-name="colon" horiz-adv-x="333" d="M84 86T104 86T137 72T151 39T138 6T104 -8T71 6T57 39T70 72ZM182 425T201 425T234 412T248 378T234 345T201 331T168 344T154 378T168 411Z" />
<glyph unicode=";" glyph-name="semicolon" horiz-adv-x="333" d="M176 425T196 425T229 412T243 378T230 345T196 331T163 344T149 378T162 411ZM20 -133L16 -119Q70 -98 100 -68T131 -6Q131 2 126 2Q124 2 113 0T98 -2Q80 -2 68 11T55 45Q55 64 67 77T98 90Q124
90 139 71T154 18Q154 -32 119 -72T20 -133Z" />
<glyph unicode="&lt;" glyph-name="less" horiz-adv-x="668" d="M595 127V79L72 302V340L595 561V514L129 321L595 127Z" />
<glyph unicode="=" glyph-name="equal" horiz-adv-x="667" d="M72 414V457H595V414H72ZM72 187V230H595V187H72Z" />
<glyph unicode="&gt;" glyph-name="greater" horiz-adv-x="667" d="M72 514V561L595 339V301L72 79V126L538 320L72 514Z" />
<glyph unicode="?" glyph-name="question" horiz-adv-x="396" d="M152 474H139Q140 550 184 607T287 665Q328 665 353 631T379 542Q379 500 356 460T312 401T255 353Q223 328 206 313T174 275T160 231Q160 211 172 198T203 184Q225 184 239 198T263 245L278 240Q258
168 201 168Q174 168 157 188T139 240Q139 275 158 313T197 374T249 430Q343 524 343 587Q343 615 329 631T288 648Q244 648 206 600T152 474ZM163 -9T144 -9T112 4T98 37T111 70T144 84Q164 84 177 70T191 37T177 5Z" />
<glyph unicode="@" glyph-name="at" horiz-adv-x="920" d="M612 457L689 468L632 273L603 168Q587 110 587 88Q587 72 597 61T625 50Q701 50 765 149T830 366Q830 498 743 583T522 669Q438 669 367 641T246 565T162 456T111 331T95 202Q95 32 202 -77T475 -186Q610
-186 711 -117T869 84H897Q854 -52 739 -133T477 -215Q292 -215 171 -93T49 215Q49 420 183 557T517 694Q669 694 764 601T859 359Q859 219 781 117T594 15Q553 15 535 31T516 84Q516 108 525 154Q501 126 486 110T443 67T388 28T333 15Q293 15 268 48T243 132Q243
200 285 280T391 415T513 471Q580 471 596 404L612 457ZM517 448Q472 448 424 388T348 258T320 148Q320 115 336 95T377 74Q411 74 449 107T507 168T536 215Q551 245 564 295T578 373Q578 407 562 427T517 448Z" />
<glyph unicode="A" glyph-name="A" horiz-adv-x="729" d="M457 258L467 575L247 258H457ZM174 183L523 686H559L539 79Q536 15 592 15H649L645 0H332L336 15H398Q426 15 438 27T451 70L456 229H226Q173 153 158 127T142 76Q142 48 161 32T213 15H256L251 0H-31V15Q28
19 67 52T174 183Z" />
<glyph unicode="B" glyph-name="B" horiz-adv-x="667" d="M346 625L274 374H387Q469 374 511 418Q536 443 551 480T566 554Q566 585 557 606T535 637T497 653T454 659T401 660Q371 660 362 654T346 625ZM342 358H270L184 49Q181 42 181 34Q181 14 208 14H303Q393
14 435 56Q463 84 483 132T503 221Q503 358 342 358ZM143 658L147 674H455Q543 674 598 632T654 522Q654 493 644 470T612 430T571 403T519 383T468 371T419 362Q455 349 483 335T540 300T585 249T601 182Q601 131 574 93T503 36T420 9T343 0H-40L-36 15H10Q59
15 74 29T108 108L250 609Q252 621 252 626Q252 658 213 658H143Z" />
<glyph unicode="C" glyph-name="C" horiz-adv-x="656" d="M548 242H563Q543 180 526 149T475 78Q394 -15 296 -15Q195 -15 124 63T53 254Q53 348 110 449T255 617T424 684Q467 684 503 664T562 606Q570 593 577 593Q590 593 609 619T644 683H660L598 361L583 360Q586
470 576 527T527 624Q484 668 425 668Q391 668 357 653T301 614Q243 550 190 404T137 160Q137 87 179 44T295 1Q384 1 455 80Q488 117 506 148T548 242Z" />
<glyph unicode="D" glyph-name="D" horiz-adv-x="729" d="M342 634L184 65Q178 44 178 33Q178 16 233 16Q302 16 355 24Q409 31 454 71T527 164T574 281T601 394T609 482Q609 657 426 660H403Q370 660 359 656T342 634ZM129 658L132 674H439Q546 674 621 592T697
393Q697 244 587 131Q520 62 442 31T257 0H-42L-38 15H20Q53 15 69 29T96 83L234 579Q243 617 243 627Q243 658 210 658H129Z" />
<glyph unicode="E" glyph-name="E" horiz-adv-x="688" d="M145 658L151 673V674H678L616 407H600Q610 469 610 504Q610 548 598 579T570 625T524 648T475 657T421 659H402Q370 659 362 654T346 621L271 355H298Q346 355 390 384Q452 427 480 538H498L382 126H365Q388
224 388 247Q388 293 365 316T284 340H268L183 43Q177 17 207 17H304Q330 17 364 27T451 74T539 169Q566 212 589 274H604L527 0H-15L-12 15H36Q57 15 74 29T98 66L250 607Q253 618 253 626Q253 658 218 658H145Z" />
<glyph unicode="F" glyph-name="F" horiz-adv-x="667" d="M143 658L148 674H675L615 403L598 404Q609 454 609 489Q609 531 599 563T575 611T545 638T519 651T505 654Q481 658 430 658Q385 659 375 652T353 605L288 361H308Q343 362 371 374T416 402T447 444T467
484T480 522H495L397 152H383Q397 205 397 237Q397 289 374 317T307 345H285L215 78Q210 62 210 42Q210 15 271 15H338L333 0H-21L-17 15H25Q53 15 67 17T96 32T119 72L256 584Q264 614 264 627Q264 658 227 658H143Z" />
<glyph unicode="G" glyph-name="G" horiz-adv-x="677" d="M481 -10H467Q471 19 471 37Q471 90 447 90Q437 90 405 58Q334 -10 264 -10Q182 -10 121 72T59 265Q59 429 202 572Q318 688 416 688Q453 688 481 674T520 649T544 618Q562 591 574 591Q592 591 613 617T652
687H668L582 345H567Q574 402 574 429Q574 539 533 605T423 672T308 617Q233 533 184 378T135 147Q135 84 171 45T266 6Q307 6 351 34Q388 59 414 111T449 198T458 243Q458 259 447 265T410 272H339L342 287H668L663 272H612Q584 272 569 259T545 214L481 -10Z"
/>
<glyph unicode="H" glyph-name="H" horiz-adv-x="781" d="M162 659L167 674H468L464 659Q397 659 377 652T346 610L274 360H558L627 602Q631 617 631 634Q631 659 574 659H544L549 674H796V659Q735 659 721 612L567 66Q565 54 565 48Q565 15 603 15H663L660 0H344L349
15H407Q460 15 476 69L552 341H268L191 68Q188 56 188 44Q188 31 198 23T226 15H283L279 0H-8V15H36Q58 15 75 28T99 65L249 600Q253 613 253 632Q253 647 240 653T196 659H162Z" />
<glyph unicode="I" glyph-name="I" horiz-adv-x="406" d="M145 658L149 674H440L438 658H421Q383 658 365 648T340 613L185 67Q182 58 182 48Q182 15 228 15H297L293 0H-35L-32 15H36Q54 15 70 29T92 65L244 603Q247 616 247 631Q247 658 201 658H145Z" />
<glyph unicode="J" glyph-name="J" horiz-adv-x="594" d="M325 659L329 674H621V659H590Q537 659 523 607L412 194Q387 104 323 46T184 -12Q123 -12 82 24T41 114Q41 154 63 181T118 208Q143 208 159 192T175 149Q175 124 157 108T107 86Q77 82 77 68Q77 46 107
26T171 6Q200 6 224 20T262 52T290 101T309 149T323 198L424 579Q434 617 434 628Q434 659 396 659H325Z" />
<glyph unicode="K" glyph-name="K" horiz-adv-x="740" d="M151 658L155 674H442L437 658H419Q383 658 366 646T339 600L247 274L535 530Q582 573 582 610Q582 632 563 645T511 658H497L502 674H772L769 658H753Q731 658 696 639T626 589L418 405L545 80Q561 38
578 27T638 15H670L666 0H348L352 15H413Q432 15 444 24T457 49Q457 58 454 67L347 342L239 246L194 84Q188 61 188 41Q188 15 235 15H283L277 0H-35L-31 15H30Q81 15 98 73L247 601Q251 621 251 629Q251 658 210 658H151Z" />
<glyph unicode="L" glyph-name="L" horiz-adv-x="635" d="M143 658L146 674H487L482 658H401Q354 658 341 611L184 52Q182 46 182 35Q182 18 213 18H289Q349 18 413 56T519 153Q544 189 587 283H602L517 0H-38L-34 15H28Q79 15 93 64L246 602Q250 615 250 631Q250
658 194 658H143Z" />
<glyph unicode="M" glyph-name="M" horiz-adv-x="833" d="M117 659L121 674H372V163L664 674H883L881 659H843Q807 659 792 645T763 586L620 86Q613 58 613 43Q613 24 633 20T711 15H730L726 0H382L388 15H450Q482 15 499 30T528 84L687 642Q691 658 679 658Q674
658 671 652L300 -3H288L281 637Q279 658 272 658T262 645L148 246Q118 139 118 104Q118 57 139 36T208 15H233L228 0H-86L-81 15H-60Q-17 15 14 30T66 75T97 132T120 201L228 580Q233 598 233 621Q233 659 178 659H117Z" />
<glyph unicode="N" glyph-name="N" horiz-adv-x="667" d="M94 659L100 674H309L501 140L597 485Q607 522 607 555Q607 604 580 631T505 659H487L490 674H753L752 659Q722 656 707 648Q647 617 623 523L479 -7H465L248 594L140 201Q127 152 127 121Q127 72 157
44T241 15H272L267 0H-57L-54 15H-40Q-20 15 8 25T50 49Q95 92 117 175L229 582Q231 592 231 599Q231 659 160 659H94Z" />
<glyph unicode="O" glyph-name="O" horiz-adv-x="677" d="M273 -15Q184 -15 124 62T63 252Q63 353 120 455T268 623T449 689Q542 689 599 613T657 415Q657 340 623 262T534 123T410 24T273 -15ZM273 1Q350 4 403 55Q454 106 485 181Q505 224 541 339T577 522Q577
593 543 633T448 673Q365 673 309 609Q235 525 189 370T143 145Q143 83 176 42T273 1Z" />
<glyph unicode="P" glyph-name="P" horiz-adv-x="677" d="M349 636L267 343H377Q466 343 514 391Q571 448 571 544Q571 598 538 631Q521 647 500 653T438 659H418Q376 659 365 656T349 636ZM131 658L135 674H463Q555 674 612 629T670 513Q670 456 623 407Q544
328 363 328H262L192 78Q186 60 186 47Q186 15 225 15H300L296 0H-26L-22 15H30Q54 15 72 29T97 67L247 604Q251 620 251 628Q251 658 214 658H131Z" />
<glyph unicode="Q" glyph-name="Q" horiz-adv-x="677" d="M578 24H595Q523 -182 397 -182Q351 -182 324 -156T297 -87Q297 -58 313 -10Q295 -12 289 -12Q282 -13 271 -13Q226 -13 189 6T129 55T90 122T68 191T61 252Q61 355 118 457T266 623T449 688Q539 688 597
611T655 414Q655 285 570 172T382 13L384 -18Q388 -92 400 -120T441 -148Q475 -148 512 -101T578 24ZM212 16Q192 47 192 70Q192 108 217 135T279 162Q363 162 378 38Q412 64 431 92Q486 167 530 308T574 520Q574 591 540 631T447 672Q362 672 307 609Q232 522
187 370T142 150Q142 52 212 16ZM242 5Q253 3 270 3Q297 3 318 9Q331 44 331 77Q331 108 316 125T274 143Q248 143 228 122T208 73Q208 37 242 5Z" />
<glyph unicode="R" glyph-name="R" horiz-adv-x="688" d="M349 629L274 363H347Q457 363 503 409Q528 434 543 475T559 559Q559 588 550 608T529 638T497 653T464 659T430 660H411Q375 661 365 655T349 629ZM136 659L139 674H439Q555 674 608 621Q651 578 651
521Q651 433 558 387Q510 364 400 350Q418 341 428 335T458 313T488 281T507 237T516 177Q516 148 507 99Q503 77 502 58Q502 25 526 25Q554 25 577 60T610 151H626Q598 -3 495 -3Q459 -3 435 22T410 87Q410 116 428 178Q443 235 443 260Q443 301 416 324T341 347H269L193
72Q189 61 189 49Q189 15 228 15H305L301 0H-38L-33 15H21Q56 15 72 27T99 75L249 598Q253 614 253 633Q253 659 220 659H136Z" />
<glyph unicode="S" glyph-name="S" horiz-adv-x="583" d="M105 325H121Q112 270 112 238Q112 134 167 68T310 2Q371 2 414 38T457 126T428 209T324 291Q252 339 225 365Q167 426 167 494Q167 573 221 629T352 685Q422 685 470 638Q497 611 512 611Q545 611 573
684H587L514 375H498Q509 431 509 470Q509 561 467 615T352 669Q296 669 257 633T217 545Q217 515 238 486T280 441T342 400Q383 373 406 356T458 312T499 255T512 188Q512 107 452 46T312 -15Q225 -15 152 56Q126 82 110 82Q69 82 23 -15L9 -16L105 325Z" />
<glyph unicode="T" glyph-name="T" horiz-adv-x="688" d="M71 362L178 674H726L655 364H640Q649 447 649 494Q649 583 623 621T535 659Q505 659 497 651T478 601L333 83Q327 63 327 45Q327 15 364 15H446L441 0H81L85 15H165Q197 15 213 29T240 81L391 619Q395
631 395 641Q395 658 361 658Q264 658 175 522Q121 440 87 362H71Z" />
<glyph unicode="U" glyph-name="U" horiz-adv-x="732" d="M129 659L133 674H465L462 659H395Q363 659 347 642T317 575L203 167Q196 142 196 116Q196 64 234 33T335 2Q423 2 490 68T588 253L652 499Q662 541 662 568Q662 612 638 635T570 659H550L553 674H803L800
659Q753 659 727 631Q692 595 670 512L601 242Q569 121 497 54T328 -14Q239 -14 180 37T120 164Q120 198 130 231L231 593Q237 614 237 634Q237 659 202 659H129Z" />
<glyph unicode="V" glyph-name="V" horiz-adv-x="656" d="M173 659H105L110 674H415L412 659H368Q325 659 313 646T300 588V112L546 512Q578 564 578 598Q578 626 559 642T507 659H485L489 674H718L715 659Q677 657 649 630T580 537L230 -32H210V619Q210 659 173 659Z" />
<glyph unicode="W" glyph-name="W" horiz-adv-x="896" d="M424 659L428 674H679L675 659H655Q618 659 605 650T592 611V134L792 527Q814 569 814 607Q814 632 799 645T758 659H734L737 674H960L956 659Q909 657 878 628T807 521L525 -32H503V500L218 -33H196V612Q196
659 163 659H102L106 674H372L368 659H332Q304 659 293 647T282 604V134L284 130L504 535V614Q504 659 471 659H424Z" />
<glyph unicode="X" glyph-name="X" horiz-adv-x="729" d="M417 390L532 66Q540 43 559 29T603 15H661L657 0H347L351 15H393Q442 15 442 46Q442 62 437 74L350 314L232 180Q184 127 184 82Q184 45 208 31T295 15L292 0H-44L-40 15Q19 17 65 43T187 154L344 330L241
614Q225 658 179 658H124L128 674H418L414 658H363Q350 658 342 651T334 633Q334 624 337 616L411 407L526 539Q553 569 553 606Q553 628 537 643T497 658H461L466 674H749L745 658H727Q652 658 569 563L417 390Z" />
<glyph unicode="Y" glyph-name="Y" horiz-adv-x="677" d="M103 658L108 674H420L415 658H368Q314 658 314 633Q314 625 318 605L397 329L545 527Q582 575 582 609Q582 658 510 658H490L495 674H742L738 658Q708 657 686 645Q633 617 569 532L397 304L333 75Q329
62 329 47Q329 15 366 15H434L428 0H93L97 15H170Q223 15 238 68L309 315L228 598Q218 631 202 644T155 658H103Z" />
<glyph unicode="Z" glyph-name="Z" horiz-adv-x="656" d="M130 397L216 674H651V665L137 17H267Q497 17 602 308L618 309L529 0H15V7L532 658H440Q370 658 302 611Q208 549 145 398L130 397Z" />
<glyph unicode="[" glyph-name="bracketleft" horiz-adv-x="510" d="M59 -182L289 674H471V657H421Q360 657 345 601L157 -102Q153 -115 153 -131Q153 -150 167 -157T218 -165H250L246 -182H59Z" />
<glyph unicode="\" glyph-name="backslash" horiz-adv-x="333" d="M295 -246L89 683H116L322 -246H295Z" />
<glyph unicode="]" glyph-name="bracketright" horiz-adv-x="510" d="M282 657L287 674H474L242 -182H59V-165H103Q171 -165 185 -110L378 602Q381 612 381 623Q381 657 324 657H282Z" />
<glyph unicode="^" glyph-name="asciicircum" horiz-adv-x="422" d="M238 677H252L460 327H415L244 614L73 327H27L238 677Z" />
<glyph unicode="_" glyph-name="underscore" horiz-adv-x="500" d="M500 -75V-125H0V-75H500Z" />
<glyph unicode="`" glyph-name="grave" horiz-adv-x="333" d="M284 504H265L177 577Q153 597 145 606T136 628Q136 641 144 649T167 657Q183 657 195 646T228 600L284 504Z" />
<glyph unicode="a" glyph-name="a" horiz-adv-x="510" d="M250 415Q216 415 190 386Q146 336 111 226T75 71Q75 41 87 24T123 7Q173 7 220 65T293 193T318 310Q318 356 299 385T250 415ZM469 175H487Q451 79 415 34T336 -11Q308 -11 292 12T276 77Q276 92 282
129Q207 -10 124 -10Q80 -10 49 37T17 153Q17 214 41 268T102 357T178 412T251 432Q286 432 307 403T334 321L369 421H434L331 70Q326 53 326 40Q326 9 349 9Q406 9 469 175Z" />
<glyph unicode="b" glyph-name="b" horiz-adv-x="448" d="M268 418Q220 416 181 371T121 266T89 158T78 88Q78 50 97 28T150 6Q183 6 214 33T266 105Q282 138 307 214T332 336Q332 418 268 418ZM51 658L55 674H76Q165 674 196 683Q208 686 211 686H235L143 354Q178
397 207 415T271 434Q323 434 359 381T395 251Q395 158 316 74T149 -10Q92 -10 59 34T25 155Q25 195 56 307L140 608Q143 618 143 627Q143 658 108 658H51Z" />
<glyph unicode="c" glyph-name="c" horiz-adv-x="396" d="M341 180H358Q344 138 332 116T296 66Q230 -10 153 -10Q95 -10 55 40T15 165Q15 263 91 352T251 442Q288 442 311 419T335 358Q335 332 321 315T286 298Q269 298 258 311T246 343Q246 363 269 387Q283
401 283 408Q283 427 255 427Q212 427 176 384T121 282T92 172T82 94Q82 52 102 29T158 6Q221 6 277 68Q300 93 312 114T341 180Z" />
<glyph unicode="d" glyph-name="d" horiz-adv-x="510" d="M236 417Q207 415 187 392Q148 347 112 238T75 75Q75 44 88 26T125 7Q184 7 240 105T296 308Q296 345 290 368T274 401T255 414T236 417ZM284 659L288 674H336Q394 674 462 685H488L325 111Q313 68 313
46Q313 15 333 15Q387 15 454 186H469Q444 114 415 68Q367 -10 317 -10Q291 -10 277 13T262 79Q262 87 265 114L251 93Q218 42 191 17T126 -9Q78 -9 48 37T18 158Q18 221 41 275T99 362T169 414T233 433Q270 433 288 408T314 324L394 610Q397 619 397 629Q397 659
348 659H284Z" />
<glyph unicode="e" glyph-name="e" horiz-adv-x="396" d="M103 196Q156 207 186 221T246 264Q299 314 299 370Q299 392 286 405T251 419Q201 419 160 349Q132 302 103 196ZM331 135H346Q329 84 301 52Q245 -10 170 -10Q105 -10 63 37T20 158Q20 219 55 284T143
391T246 434Q284 434 305 412T327 350Q327 319 316 294T282 251T240 221T188 200T141 187T99 177Q82 131 82 85Q82 49 107 28T174 6Q225 6 266 40T331 135Z" />
<glyph unicode="f" glyph-name="f" horiz-adv-x="333" d="M64 419H153Q193 591 243 644Q278 681 320 681Q356 681 377 657T399 593Q399 570 386 554T354 538Q339 538 330 548T321 575Q321 595 339 613Q353 627 353 640Q353 665 324 665Q302 665 285 648T261 602L224
419H319L314 397H219L191 256Q170 154 154 86T116 -51T72 -157T19 -220T-48 -244Q-82 -244 -106 -220T-130 -162Q-130 -139 -115 -121T-80 -102Q-63 -102 -53 -112T-42 -139Q-42 -160 -67 -184Q-82 -198 -82 -207T-74 -222T-53 -228Q-12 -228 12 -183Q43 -130 77
40L147 397H59L64 419Z" />
<glyph unicode="g" glyph-name="g" horiz-adv-x="448" d="M139 7Q178 9 214 46T272 136T307 239T320 326Q320 369 301 396T251 423Q214 423 190 394Q152 351 120 253T87 84Q87 7 139 7ZM433 426L306 -21Q290 -79 273 -112T228 -172Q181 -220 118 -220Q75 -220
46 -194T16 -129Q16 -100 30 -81T66 -61Q83 -61 94 -74T106 -107Q106 -135 77 -156Q61 -168 61 -176Q61 -186 76 -194T109 -203Q147 -203 178 -172Q203 -146 218 -98T262 80Q225 31 196 11T135 -10Q90 -10 57 40T23 158Q23 261 95 350T250 439Q287 439 309 411T336
332L363 426H433Z" />
<glyph unicode="h" glyph-name="h" horiz-adv-x="510" d="M278 688L160 291L174 313Q217 380 248 407T313 435T365 405T384 323Q384 257 332 150Q298 81 298 49Q298 16 323 16Q360 16 400 79Q425 118 451 187L468 188Q426 75 384 32Q346 -4 317 -4Q287 -4 269
21T251 89Q251 148 302 261Q341 343 341 379Q341 397 332 408T308 419Q295 419 278 410T236 372T184 299T126 177T67 0H-1L178 599Q183 616 183 630Q183 646 168 652T107 658H67L71 674H94Q166 674 256 688H278Z" />
<glyph unicode="i" glyph-name="i" horiz-adv-x="333" d="M237 673Q257 673 271 659T286 623T272 588T237 573Q216 573 202 587T187 623T201 658T237 673ZM29 261H14Q35 324 60 366Q99 431 143 431Q175 431 193 406T212 335Q212 277 162 159Q124 70 124 37Q124
9 146 9Q177 9 210 54T272 179H286Q262 93 221 42T136 -10Q107 -10 91 14T74 83Q74 151 133 276Q168 353 168 380Q168 413 139 413Q86 413 29 261Z" />
<glyph unicode="j" glyph-name="j" horiz-adv-x="333" d="M247 669Q268 669 282 655T297 619T283 584T247 569Q227 569 213 583T198 619T212 654T247 669ZM37 232H21Q44 319 85 375T166 432Q203 432 226 395T250 297Q250 187 196 24T84 -201Q66 -220 35 -233T-22
-246Q-64 -246 -91 -223T-118 -165Q-118 -140 -104 -124T-69 -107Q-52 -107 -40 -119T-28 -148Q-28 -169 -51 -187Q-65 -198 -65 -206Q-65 -229 -26 -229Q34 -229 65 -152Q90 -88 144 106T198 362Q198 416 165 416T94 362T37 232Z" />
<glyph unicode="k" glyph-name="k" horiz-adv-x="510" d="M152 215L92 0H19L189 605Q193 621 193 629Q193 658 148 658H100L105 674H146Q196 674 272 687H285L157 229H186Q214 229 236 246T270 281T300 335Q312 358 319 370T339 400T369 427T403 436Q429 436 444
417T459 367Q459 340 448 322T418 304Q404 304 395 316T385 346Q385 363 396 386Q403 401 403 406Q403 417 392 417Q358 417 313 325Q287 274 269 254T219 220Q293 180 294 77Q294 19 321 19Q350 19 381 60T436 168H452Q393 -7 290 -7Q253 -7 231 14T209 71Q209
91 220 124Q229 151 229 166Q229 215 181 215H152Z" />
<glyph unicode="l" glyph-name="l" horiz-adv-x="298" d="M221 184H236Q218 97 181 44T100 -10Q70 -10 53 15T36 86Q36 130 50 180L169 599Q173 612 173 629Q173 645 159 652T102 659H69L74 674H128Q178 674 254 687H267L93 78Q86 52 86 38Q86 9 109 9Q140 9 172
59T221 184Z" />
<glyph unicode="m" glyph-name="m" horiz-adv-x="792" d="M17 251H3Q26 332 66 383T147 435Q174 435 189 410T205 341Q205 315 199 273L193 234Q194 237 212 274T241 330T273 378T317 421T366 435Q397 435 416 407T436 336Q436 316 431 281T425 236Q513 435 602
435Q634 435 654 407T674 333Q674 256 615 129Q584 61 584 38Q584 10 611 10Q630 10 656 30T702 83Q720 113 741 170H756Q729 85 690 40T607 -6Q575 -6 558 17T540 84Q540 148 594 272Q628 347 628 377Q628 417 596 417Q576 417 555 403T517 369T482 316T450 256T423
191T401 132T383 81T372 48L355 0H290L370 267Q394 353 394 375Q394 416 360 416Q337 416 312 393T266 337T223 258T187 180T159 108T143 66L120 0H54L154 336Q162 365 162 383Q162 417 139 417Q111 417 75 368T17 251Z" />
<glyph unicode="n" glyph-name="n" horiz-adv-x="563" d="M21 272H5Q27 343 67 389T147 436Q164 436 176 429T195 410T205 382T208 349T206 314T202 281T196 252T192 231Q193 233 211 268T241 324T275 375T320 420T367 435Q402 435 422 404T443 321Q443 259 393
153Q358 79 358 45Q358 13 387 13Q420 13 455 57T516 171L531 172Q505 89 465 42T379 -6Q346 -6 328 18T309 86Q309 152 361 264Q397 340 397 374Q397 392 389 404T367 416Q322 416 269 337T163 112L123 0H59L147 296Q169 373 169 384Q169 399 161 408T140 417Q108
417 76 372T21 272Z" />
<glyph unicode="o" glyph-name="o" horiz-adv-x="448" d="M159 -10Q98 -8 57 45T15 174Q15 271 90 352T255 433Q319 433 361 381T404 249Q404 147 324 66T159 -10ZM165 6Q206 8 241 45T298 134T330 236T342 322Q342 367 319 392T252 417Q211 417 176 380T121 290T89
185T77 100Q77 52 103 28T165 6Z" />
<glyph unicode="p" glyph-name="p" horiz-adv-x="563" d="M387 415Q352 413 322 382Q282 337 249 252T215 109Q215 65 236 36T289 7Q352 7 392 111Q416 169 432 234T448 337Q448 415 387 415ZM20 223H5Q37 319 82 375T173 431Q256 431 247 290Q312 431 385 431Q439
431 473 381T507 250Q507 153 440 72T293 -10Q256 -10 234 13T199 88L133 -135Q126 -163 126 -173Q126 -206 165 -206H226L222 -221H-58L-53 -206H-14Q39 -206 57 -146L183 285Q198 336 198 369Q198 412 166 412Q131 412 91 360T20 223Z" />
<glyph unicode="q" glyph-name="q" horiz-adv-x="448" d="M289 178Q324 294 324 335Q324 373 308 394T263 416Q222 416 187 372T130 268T98 157T86 82Q86 7 140 7Q180 7 223 56T289 178ZM199 -147L264 83Q196 -12 135 -12Q89 -12 57 37T25 158Q25 207 42 252T87
329T146 385T210 420T265 432Q334 432 353 337Q395 385 420 445H437L272 -147Q268 -165 268 -172Q268 -206 310 -206H360L357 -221H69L75 -206H129Q183 -206 199 -147Z" />
<glyph unicode="r" glyph-name="r" horiz-adv-x="396" d="M40 248H23Q46 324 70 364Q107 430 149 430Q197 430 197 332Q197 300 188 240L200 265Q240 353 271 391T333 430Q350 430 362 414T375 376Q375 350 363 332T333 313Q322 313 314 323T306 347Q306 362 319
380Q329 396 329 403T322 410Q289 410 234 300T151 99L120 0H60L141 288Q162 357 162 385Q162 411 144 411Q118 411 90 367T40 248Z" />
<glyph unicode="s" glyph-name="s" horiz-adv-x="396" d="M129 226Q97 261 97 304Q97 356 138 396T233 436Q283 436 315 407T348 335Q348 312 336 297T305 281Q291 281 281 292T271 320Q271 344 300 362Q312 370 312 376Q312 393 287 406T231 420Q193 420 165
398T136 344Q136 319 151 302T206 266Q313 216 313 137Q313 75 266 33T149 -10Q91 -10 50 25T8 110Q8 141 23 163T59 186Q75 186 84 175T94 145Q94 105 52 94Q34 90 34 78Q34 53 70 30T146 7Q200 7 235 33T270 99Q270 119 258 135T233 160T193 183Q149 208 129
226Z" />
<glyph unicode="t" glyph-name="t" horiz-adv-x="281" d="M101 419L147 591H220L173 419H253L247 396H168L79 62Q76 50 76 39Q76 13 96 13Q123 13 158 62T219 182H233Q208 99 167 47T86 -6Q58 -6 41 19T23 86Q23 123 37 177L96 396H25L31 419H101Z" />
<glyph unicode="u" glyph-name="u" horiz-adv-x="563" d="M22 255L7 254Q20 304 30 328T62 377Q106 432 155 432Q187 432 207 406T227 337Q227 271 174 159Q139 83 139 55Q139 33 149 21T176 8Q205 8 234 37Q267 72 292 124T361 296L404 426H472L389 140Q368 69
368 42Q368 10 394 10Q423 10 456 52T513 164H529Q471 -9 384 -9Q359 -9 344 13T328 72Q328 112 340 177Q341 186 342 193T344 204Q257 -11 175 -11Q138 -11 114 23T90 108Q90 170 142 275Q178 351 178 381Q178 413 148 413Q111 413 76 370T22 255Z" />
<glyph unicode="v" glyph-name="v" horiz-adv-x="448" d="M29 262H14Q30 313 42 337T76 389Q111 430 151 430Q179 430 197 403T216 334Q216 264 164 160Q128 91 128 58Q128 7 179 7Q221 7 261 42T328 126T370 220T387 290Q387 308 380 317T354 330Q340 333 332
340Q318 355 318 380Q318 403 330 417T362 431Q384 431 398 407T412 347Q412 287 384 206T299 57T178 -10Q134 -10 109 23T83 115Q83 178 135 282Q171 354 171 383Q171 397 163 405T141 414Q117 414 92 382Q70 356 58 333T29 262Z" />
<glyph unicode="w" glyph-name="w" horiz-adv-x="677" d="M395 423H462L411 241Q364 83 364 60Q364 7 410 7Q455 7 504 57T583 173T614 284Q614 299 608 306T585 318Q568 323 558 331Q543 347 543 371Q543 398 555 413T588 429Q610 429 624 404T639 339Q639 263
603 181T513 44T407 -10Q324 -10 324 115Q324 138 328 177Q303 124 288 97Q259 47 223 19T152 -10T96 23T73 106Q73 170 126 275Q160 346 160 373Q160 389 152 399T132 410Q127 410 122 409T104 400T80 379T51 337T18 271H2Q18 313 37 344T70 391T101 416T124 426T139
428Q170 428 188 400T207 324Q207 260 157 156Q122 83 122 50Q122 30 132 18T159 5Q172 5 192 16T229 45Q267 83 300 156T377 367L395 423Z" />
<glyph unicode="x" glyph-name="x" horiz-adv-x="510" d="M41 265H26Q45 314 69 349T117 399T157 420T188 426Q229 426 252 392T276 297Q276 277 275 264Q349 425 423 425Q445 425 460 408T476 365Q476 339 463 321T430 302Q398 302 398 338Q398 359 416 383Q425
393 425 400Q425 408 411 408Q393 408 364 379Q324 335 287 237T249 76Q249 11 298 11Q307 11 318 14T350 29T393 70T437 146H453Q436 105 423 84T389 41Q340 -10 290 -10Q246 -10 225 25T199 137Q132 -11 63 -11Q39 -11 23 9T6 58Q6 83 19 101T51 120Q63 120 72
109T81 82Q81 59 61 35Q51 24 51 16Q51 6 66 6Q91 6 124 44T178 135Q199 189 214 249T229 337Q229 367 215 386T179 406Q105 406 41 265Z" />
<glyph unicode="y" glyph-name="y" horiz-adv-x="510" d="M28 253H12Q39 333 80 381T163 429Q192 429 208 405T224 337Q224 270 167 150Q130 75 130 46Q130 6 165 6Q203 6 246 47Q283 82 308 135T367 291Q371 303 383 337T402 389L415 426H482L380 76Q330 -97
257 -167Q227 -196 188 -213T116 -231Q72 -231 42 -207T12 -147Q12 -121 26 -104T60 -86Q78 -86 90 -99T103 -130Q103 -164 72 -181Q60 -188 60 -193Q60 -201 76 -208T111 -215Q139 -215 162 -206T203 -174T234 -131T261 -72T282 -7T303 66L317 118L298 87Q271
43 234 17T162 -10Q125 -10 104 19T83 100Q83 149 133 259Q175 350 175 383Q175 395 168 402T150 410Q123 410 89 367T28 253Z" />
<glyph unicode="z" glyph-name="z" horiz-adv-x="396" d="M27 283H14Q35 346 75 387T156 429Q187 429 221 387Q248 354 268 354Q282 354 292 362T302 382Q302 384 300 395T297 409Q297 428 315 428T333 402Q333 378 322 355T283 302T230 251T157 188Q100 140 82
123T48 81Q74 90 89 90Q100 90 129 83Q179 69 213 69Q304 69 335 153H351Q337 110 319 78T285 30T253 4T227 -8T212 -10Q177 -10 138 33Q104 71 76 71Q59 71 49 63T38 40Q38 38 41 26T45 11Q45 -10 26 -10T7 21Q7 65 52 114T200 249Q242 284 262 303T297 347Q296
347 295 347T293 346T289 345Q270 337 253 337Q244 337 204 345Q157 356 133 356Q96 356 74 341T27 283Z" />
<glyph unicode="{" glyph-name="braceleft" horiz-adv-x="480" d="M431 701L430 684Q320 656 320 568Q320 541 333 491Q343 443 343 417Q343 361 305 316T199 247Q266 222 304 176T343 75Q343 47 332 1Q320 -52 320 -76Q320 -164 430 -192V-209Q347 -198 297 -144T247
-12Q247 19 258 57Q270 108 270 131Q270 171 239 200T159 236V256Q208 263 239 292T270 361Q270 386 257 435Q247 478 247 511Q247 583 299 637T431 701Z" />
<glyph unicode="|" glyph-name="bar" horiz-adv-x="496" d="M226 -250V750H269V-250H226Z" />
<glyph unicode="}" glyph-name="braceright" horiz-adv-x="480" d="M87 -209V-192Q197 -164 197 -76Q197 -52 185 1Q175 49 175 75Q175 131 213 176T319 245Q252 270 214 316T175 417Q175 443 185 491Q197 544 197 568Q197 656 87 684V701Q170 690 220 636T270
504Q270 475 260 435Q248 384 248 361Q248 321 279 292T359 256V236Q310 229 279 200T248 131Q248 108 260 57Q270 14 270 -19Q270 -91 218 -145T87 -209Z" />
<glyph unicode="~" glyph-name="asciitilde" horiz-adv-x="667" d="M94 255H73Q76 319 109 354Q141 388 184 388Q231 388 372 328Q446 296 480 296Q520 296 543 319T572 387H593Q592 329 560 292T477 254Q438 254 374 280L293 313Q214 344 184 344Q112 344 94 255Z" />
</font>
</defs>
</svg>
