<?xml version="1.0" standalone="no"?> <!DOCTYPE svg PUBLIC "-//W3C//DTD SVG 1.0//EN" "http://www.w3.org/TR/2001/REC-SVG-20010904/DTD/svg10.dtd" > <svg xmlns="http://www.w3.org/2000/svg" width="100%" height="100%">
<defs >
<font id="modernmtstdextended" horiz-adv-x="430" ><font-face
    font-family="ModernMTStd-Extended"
    units-per-em="1000"
    panose-1="2 2 5 5 5 4 5 2 3 3"
    ascent="689"
    descent="-311"
    alphabetic="0" />
<missing-glyph horiz-adv-x="500" d="M0 0V700H500V0H0ZM250 395L420 650H80L250 395ZM280 350L450 95V605L280 350ZM80 50H420L250 305L80 50ZM50 605V95L220 350L50 605Z" />
<glyph unicode=" " glyph-name="space" horiz-adv-x="220" />
<glyph unicode="!" glyph-name="exclam" horiz-adv-x="281" d="M151 162H135V242Q135 318 113 456Q98 551 98 587Q98 627 109 651T141 675Q185 675 185 580Q185 548 173 473Q151 336 151 241V162ZM141 80Q160 79 173 67T186 35T173 3T141 -10T109 3T96 35Q96 53
108 66T141 80Z" />
<glyph unicode="&quot;" glyph-name="quotedbl" horiz-adv-x="408" d="M142 392H125L96 585Q95 594 95 612Q95 677 133 677Q173 677 173 620Q173 606 170 585L142 392ZM283 392H266L237 585Q236 594 236 612Q236 677 274 677Q314 677 314 620Q314 606 311 585L283 392Z" />
<glyph unicode="#" glyph-name="numbersign" horiz-adv-x="668" d="M46 420V463H210L253 666H295L252 463H475L517 666H560L517 463H621V420H509L467 222H621V179H458L417 -23H373L416 179H193L151 -23H108L150 179H46V222H159L201 420H46ZM466 420H243L202 223H425L466
420Z" />
<glyph unicode="$" glyph-name="dollar" horiz-adv-x="510" d="M202 685H218V648Q259 656 292 652V685H308V649Q436 612 436 520Q436 495 424 479T391 463Q370 463 356 476T341 509Q341 536 369 558Q384 569 384 578Q384 608 308 632V353Q338 337 354 326T397
291T435 234T448 158Q448 78 389 22Q359 -7 308 -28V-131H293V-32Q254 -43 218 -36V-131H202V-33Q137 -15 100 23T63 111Q63 143 76 162T111 182T147 168T162 132Q162 100 129 87Q103 75 103 61Q103 40 133 17T202 -15V300Q174 315 158 326T120 358T89 407T79 472Q79
590 202 644V685ZM202 400V627Q127 589 127 516Q127 441 202 400ZM292 360V634Q254 639 218 632V391Q242 380 292 360ZM308 253V-10Q357 10 379 40T401 117Q401 165 381 195T308 253ZM218 292V-18Q256 -26 293 -14V260Q268 272 218 292Z" />
<glyph unicode="%" glyph-name="percent" horiz-adv-x="1010" d="M724 320Q785 320 826 270T868 146Q868 68 827 17T724 -34Q663 -34 622 16T580 141Q580 218 621 269T724 320ZM725 -21Q762 -21 776 9T790 120Q790 220 785 250Q782 275 766 291T725 307Q687 307
673 277T658 167Q658 74 663 37Q664 28 667 18T686 -7T725 -21ZM296 686Q357 686 398 636T440 512Q440 434 399 383T296 332Q235 332 194 382T152 507Q152 584 193 635T296 686ZM297 345Q334 345 348 375T362 486Q362 586 357 616Q354 641 338 657T297 673Q259
673 245 643T230 533Q230 440 235 403Q236 394 239 384T258 359T297 345ZM235 -33L734 684H774L275 -33H235Z" />
<glyph unicode="&amp;" glyph-name="ampersand" horiz-adv-x="729" d="M654 185H670Q668 91 627 36T518 -19Q455 -19 395 58Q324 -19 235 -19Q162 -19 114 27T66 145Q66 181 79 213T120 275T172 325T236 374Q199 458 199 520Q199 579 231 621T309 664Q356 664
387 633T418 555Q418 515 394 482T311 407L439 145Q503 253 503 326Q503 361 478 383T414 406H400V421H653V407H637Q617 406 600 397T572 376T548 341T528 302T510 257Q476 172 449 129Q479 69 503 44T554 18Q599 18 625 61T654 185ZM305 422Q372 468 372 554Q372
594 355 621T312 648T270 629T254 578Q254 527 305 422ZM256 329L244 357Q143 288 143 197Q143 121 182 68T277 15Q330 15 386 72Q328 172 256 329Z" />
<glyph unicode="&apos;" glyph-name="quotesingle" horiz-adv-x="180" d="M99 392H82L53 585Q52 594 52 612Q52 677 90 677Q130 677 130 620Q130 606 127 585L99 392Z" />
<glyph unicode="(" glyph-name="parenleft" horiz-adv-x="333" d="M230 682H246Q207 610 189 567T154 457Q125 349 125 251Q125 151 148 57T191 -82T244 -186H227Q175 -125 151 -87T105 11Q64 120 64 244Q64 313 76 376T104 481T146 568T189 632T230 682Z" />
<glyph unicode=")" glyph-name="parenright" horiz-adv-x="333" d="M103 -186H87Q126 -114 144 -71T179 39Q208 147 208 245Q208 345 185 439T142 578T89 682H106Q158 621 182 583T228 485Q269 376 269 252Q269 183 257 120T229 15T187 -72T144 -136T103 -186Z" />
<glyph unicode="*" glyph-name="asterisk" horiz-adv-x="532" d="M254 481L260 486Q259 526 242 568Q228 600 228 624Q228 645 238 658T266 671T293 657T303 620Q303 605 289 566Q270 516 272 486L277 483Q307 497 335 534Q360 564 377 575T414 587Q427 587 437
577T447 552Q447 510 365 498Q316 491 285 472V463Q315 448 365 439Q387 435 400 432T430 415T447 381Q447 367 437 358T412 349Q378 349 338 399Q310 434 279 452L273 449Q273 412 291 366Q304 331 304 313Q304 292 294 278T268 263Q252 263 241 277T229 311Q229
332 244 370Q261 418 260 449L254 452Q224 436 199 403Q164 361 141 352Q131 348 120 348Q106 348 96 358T86 383Q86 423 169 438Q218 448 247 464V471Q220 487 168 496Q120 503 101 520Q85 539 85 554Q85 567 96 576T121 586Q155 586 204 524Q223 499 254 481Z"
/>
<glyph unicode="+" glyph-name="plus" horiz-adv-x="666" d="M71 298V341H311V582H354V341H596V298H354V59H311V298H71Z" />
<glyph unicode="," glyph-name="comma" horiz-adv-x="281" d="M98 -164L92 -150Q195 -92 195 -13Q195 9 181 9Q176 9 170 4Q158 -6 143 -6Q125 -6 114 6T102 38Q102 58 115 71T149 84Q176 84 193 59T211 -6Q211 -105 98 -164Z" />
<glyph unicode="-" glyph-name="hyphen" horiz-adv-x="333" d="M60 198V239H273V198H60Z" />
<glyph unicode="." glyph-name="period" horiz-adv-x="281" d="M140 -9Q120 -8 106 6T92 39Q92 59 106 73T140 88T174 74T189 39Q189 20 175 6T140 -9Z" />
<glyph unicode="/" glyph-name="slash" horiz-adv-x="333" d="M51 -246L257 683H283L77 -246H51Z" />
<glyph unicode="0" glyph-name="zero" horiz-adv-x="510" d="M252 -21Q199 -21 147 28T62 154T29 310Q29 384 56 462T136 598T254 656Q316 656 368 602Q419 549 450 472T481 318Q481 190 410 85T252 -21ZM138 378V282Q138 183 142 139T159 64Q187 -4 256 -4Q298
-4 327 25Q352 51 362 109T372 282Q372 322 369 411T363 519Q350 640 254 640Q227 640 207 631T175 601T155 560T144 505T139 445T138 378Z" />
<glyph unicode="1" glyph-name="one" horiz-adv-x="510" d="M113 612V628Q190 631 236 641Q294 652 297 652H313V56Q313 15 350 15H420V0H114V14H168Q198 14 208 23T219 58V557Q219 589 202 600T138 612H113Z" />
<glyph unicode="2" glyph-name="two" horiz-adv-x="510" d="M419 0H25Q47 36 77 71T221 227Q253 262 269 281T306 334T334 403T343 484Q343 554 311 593T222 633Q166 633 119 586T71 482Q71 455 85 455Q90 455 97 465Q115 489 136 489Q160 489 176 472T192 428T175
385T132 368Q98 368 77 397T55 474Q55 549 112 600T252 652Q332 652 392 598T453 474Q453 446 444 421T414 372T378 334T334 296Q222 202 166 144Q132 108 112 85H370Q403 85 413 101T433 167Q436 186 440 203H455L419 0Z" />
<glyph unicode="3" glyph-name="three" horiz-adv-x="510" d="M260 323Q320 314 352 302T408 266Q453 224 453 166Q453 84 385 30T215 -24Q138 -24 91 12T43 106Q43 137 61 158T104 180Q130 180 146 164T163 122Q163 74 118 51Q101 43 101 35Q101 19 134 6T206
-8Q270 -8 310 32Q345 67 345 148Q345 221 316 266T239 312Q221 312 193 304Q175 299 166 299Q150 299 150 311Q150 326 195 326Q261 327 296 366T331 478Q331 555 300 595T211 636Q174 636 140 618T106 580Q106 570 126 566Q180 554 180 505Q180 479 162 460T119
441Q91 441 73 463T54 519Q54 574 103 614T219 655Q307 655 369 606T431 488Q431 382 260 323Z" />
<glyph unicode="4" glyph-name="four" horiz-adv-x="510" d="M262 212V520L38 212H262ZM30 229L339 652L352 653V211H483V170H352V57Q352 34 360 25T388 16H472V0H142V17H231Q262 17 262 51V170H30V229Z" />
<glyph unicode="5" glyph-name="five" horiz-adv-x="510" d="M93 325L132 641Q262 601 325 601Q405 601 416 651H433Q416 589 380 560T283 531Q236 531 168 543Q159 545 151 546T138 548L111 339Q150 380 180 395T255 410Q341 410 402 350T464 207Q464 115 392
47T221 -22Q146 -22 89 21T31 121Q31 153 51 175T101 198Q125 198 142 181T160 141Q160 102 119 81Q95 70 95 54Q95 31 133 13T222 -5Q353 -5 353 191Q353 322 310 364Q284 392 245 392Q196 392 157 363T104 287Q99 268 90 268Q82 268 82 281Q82 284 87 303T93
325Z" />
<glyph unicode="6" glyph-name="six" horiz-adv-x="510" d="M287 393Q272 393 254 384T213 355T175 293T160 194Q160 93 187 45T272 -3Q311 -3 339 23Q371 55 371 181Q371 336 338 370Q315 393 287 393ZM158 356L159 303Q189 362 221 387T301 412Q371 412 423
350T476 204Q476 113 417 47T277 -20Q179 -20 114 73T48 307Q48 450 122 553T299 656Q358 656 399 623T440 542Q440 515 421 495T377 475Q355 475 341 490T326 531Q326 581 373 592Q386 595 386 601Q386 613 358 626T301 640Q242 640 206 602Q179 575 168 524T158
356Z" />
<glyph unicode="7" glyph-name="seven" horiz-adv-x="510" d="M70 419L85 656L101 657Q101 646 108 639T130 632H463Q458 619 447 596Q374 436 349 343T318 116L317 86Q310 -20 253 -20Q230 -20 216 -3T201 44Q201 113 307 325Q373 462 403 541H152Q116 541 104
529Q98 523 96 511T88 441L86 419H70Z" />
<glyph unicode="8" glyph-name="eight" horiz-adv-x="510" d="M180 298Q64 368 64 464Q64 547 115 601T245 656Q322 656 379 610T436 500Q436 467 418 439T379 396T321 357Q347 343 362 333T406 299T449 242T464 167Q464 89 401 35T249 -20Q163 -20 105 27T46
145Q46 173 56 195T89 237T129 268T180 298ZM299 366Q381 406 381 493Q381 562 345 601T243 640Q188 640 152 608T115 525Q115 502 126 481T153 445T193 416T233 394T273 377Q280 374 288 371T299 366ZM202 289Q171 273 154 261T120 218T103 143Q103 78 144 38T253
-3Q315 -3 354 31T394 118Q394 143 384 164T360 200T317 232T267 260T202 289Z" />
<glyph unicode="9" glyph-name="nine" horiz-adv-x="510" d="M226 243Q236 244 247 246T279 261T315 293T343 353T355 446Q355 547 328 593T239 639Q216 639 199 631T172 607T156 576T148 537T145 500T144 466Q144 382 151 324Q156 293 177 268T226 243ZM357 277V336Q305
224 213 224Q143 224 91 287T38 437Q38 524 98 590T238 656Q337 656 402 564T467 331Q467 286 458 239T428 144T378 61T305 1T209 -22Q155 -22 113 13T70 95Q70 123 88 142T132 161Q155 161 172 144T189 103Q189 57 145 46Q131 42 131 34Q131 20 159 7T217 -6Q273
-6 312 35Q336 60 347 109T357 277Z" />
<glyph unicode=":" glyph-name="colon" horiz-adv-x="281" d="M141 419Q159 419 172 406T185 374Q185 356 172 343T141 329Q122 329 109 342T96 374Q96 393 109 406T141 419ZM141 82Q160 81 173 69T186 37T173 5T141 -8T109 5T96 37Q96 55 108 68T141 82Z" />
<glyph unicode=";" glyph-name="semicolon" horiz-adv-x="281" d="M164 327T144 327T110 340T96 374T110 408T144 422T177 408T191 374T178 341ZM98 -164L92 -150Q195 -92 195 -13Q195 9 181 9Q176 9 170 4Q158 -6 143 -6Q125 -6 114 6T102 38Q102 58 115 71T149
84Q176 84 193 59T211 -6Q211 -105 98 -164Z" />
<glyph unicode="&lt;" glyph-name="less" horiz-adv-x="668" d="M595 127V79L72 302V340L595 561V514L129 321L595 127Z" />
<glyph unicode="=" glyph-name="equal" horiz-adv-x="667" d="M72 414V457H595V414H72ZM72 187V230H595V187H72Z" />
<glyph unicode="&gt;" glyph-name="greater" horiz-adv-x="667" d="M72 514V561L595 339V301L72 79V126L538 320L72 514Z" />
<glyph unicode="?" glyph-name="question" horiz-adv-x="448" d="M152 470H136Q137 560 166 609T250 659Q294 659 323 624T353 535Q353 457 274 349Q219 273 219 236Q219 215 231 203T263 190Q309 190 321 261H336Q330 220 311 197T262 174Q229 174 208 203T187
279Q187 345 254 448Q310 532 310 578Q310 605 292 624T247 643Q223 643 202 626T169 581Q152 541 152 470ZM234 83T253 83T285 69T299 36T286 4T253 -10T220 3T206 36Q206 56 220 69Z" />
<glyph unicode="@" glyph-name="at" horiz-adv-x="921" d="M613 457L690 468L633 273L603 168Q587 110 587 88Q587 72 597 61T625 50Q701 50 766 149T831 366Q831 498 744 583T522 669Q438 669 367 641T246 565T163 456T112 331T96 202Q96 32 202 -77T475 -186Q610
-186 712 -116T870 84H898Q855 -51 740 -133T477 -215Q292 -215 171 -93T50 215Q50 420 183 557T517 694Q669 694 764 601T860 359Q860 219 782 117T594 15Q553 15 535 31T516 84Q516 108 525 154Q501 126 486 110T444 67T388 28T334 15Q294 15 269 48T244 132Q244
200 286 280T392 415T514 471Q581 471 597 404L613 457ZM518 448Q473 448 425 388T349 258T321 148Q321 115 337 95T378 74Q412 74 450 107T508 168T537 215Q552 245 565 295T579 373Q579 407 563 427T518 448Z" />
<glyph unicode="A" glyph-name="A" horiz-adv-x="729" d="M452 251L342 578L221 251H452ZM21 0V15Q55 16 80 27T122 62T147 104T169 157L365 685H403L601 104Q622 44 636 30T691 15H709V0H396V15H481Q518 15 518 43Q518 55 513 72L462 224H211L204 206Q174 120
174 93Q174 57 203 36T282 15H307V0H21Z" />
<glyph unicode="B" glyph-name="B" horiz-adv-x="729" d="M282 623V364H371Q448 364 492 403T537 511Q537 577 499 617T399 657H308Q282 657 282 623ZM373 348H282V51Q282 32 288 25T310 17H397Q473 17 520 62T567 182Q567 255 513 301T373 348ZM39 661V676H380Q491
676 568 631T645 521Q645 461 596 422T435 355Q491 345 521 336T586 306Q679 253 679 179Q679 106 593 53T389 0H39V15H132Q155 15 168 30T182 73V603Q182 661 133 661H39Z" />
<glyph unicode="C" glyph-name="C" horiz-adv-x="615" d="M563 247H578Q572 173 551 128Q521 61 460 20T335 -22Q214 -22 124 82T34 326Q34 409 61 479T130 594T221 662T314 687Q352 687 383 676T438 644T471 609T497 573Q539 632 554 687H569L575 382H560Q520
539 442 617Q419 642 386 657T321 672Q138 672 138 308Q138 208 156 147T216 43Q262 -5 330 -5Q395 -5 452 34T539 139Q558 181 563 247Z" />
<glyph unicode="D" glyph-name="D" horiz-adv-x="792" d="M417 658H313Q286 658 286 629V54Q286 17 315 17H410Q513 17 573 100T633 326Q633 431 616 496T558 604Q506 658 417 658ZM39 661V676H413Q549 676 649 574T750 332Q750 199 647 100T403 0H40V15H135Q185
15 185 73V603Q185 661 136 661H39Z" />
<glyph unicode="E" glyph-name="E" horiz-adv-x="729" d="M37 661V676H658V427H643Q636 457 630 477T606 535T567 596T509 639T427 658H301Q278 658 278 626V353H313Q462 353 466 528L481 527V152H465Q465 207 456 236T423 291Q381 336 318 336H278V51Q278 32
285 25T309 17H438Q552 17 619 137Q641 178 657 249H673L667 0H36V15H128Q151 15 164 30T178 73V604Q178 661 129 661H37Z" />
<glyph unicode="F" glyph-name="F" horiz-adv-x="677" d="M336 337H282Q279 262 279 188Q279 94 282 67T297 28Q310 15 332 15H401V0H47V15H131Q181 15 181 73V603Q181 661 131 661H36V676H645V423H630Q618 523 560 590T427 657H307Q282 657 282 624V353H332Q369
353 401 376T450 438Q464 470 464 536H481V151H465V159Q465 241 430 289T336 337Z" />
<glyph unicode="G" glyph-name="G" horiz-adv-x="729" d="M615 -22H599Q578 80 551 119Q468 -22 346 -22Q230 -22 140 83T49 322Q49 379 71 442T132 560T229 650T352 686Q410 686 456 659T546 572Q577 608 591 685H608L623 372H607Q586 451 566 496Q532 576 479
623T356 671Q313 671 281 656T228 612T195 550T176 471T168 388T166 302Q166 145 210 70T347 -6Q420 -6 469 46T519 176V232Q519 246 510 255T485 264H386L387 279H717V264H652Q615 264 615 226V-22Z" />
<glyph unicode="H" glyph-name="H" horiz-adv-x="844" d="M39 661V676H393V661H324Q301 661 288 646T274 603V366H575V603Q575 661 525 661H457V676H805V661H725Q702 661 689 646T675 603V73Q675 45 688 30T725 15H806V0H457V15H525Q548 15 561 30T575 73V333H274V73Q274
45 287 30T324 15H393V0H39V15H124Q147 15 160 30T174 73V603Q174 661 125 661H39Z" />
<glyph unicode="I" glyph-name="I" horiz-adv-x="448" d="M47 0V15H132Q178 15 182 73V603Q182 661 133 661H47V676H401V661H332Q309 661 296 646T282 603V73Q282 45 295 30T332 15H401V0H47Z" />
<glyph unicode="J" glyph-name="J" horiz-adv-x="563" d="M426 603V214Q426 160 411 117T373 49T321 6T267 -17T219 -24Q143 -24 90 25T36 144Q36 183 55 208T103 233Q128 233 146 214T164 169Q164 119 114 98Q89 87 88 71Q89 42 125 18T203 -7Q236 -7 260 3T296
27T315 63T323 99T326 135V603Q326 661 277 661H191V676H545V661H476Q426 661 426 603Z" />
<glyph unicode="K" glyph-name="K" horiz-adv-x="844" d="M36 0V15H121Q167 15 171 73V603Q171 661 122 661H36V676H390V661H321Q271 661 271 603V303L501 533Q546 578 546 611Q546 634 530 647T486 661H465V676H762V661H742Q690 661 646 637T543 553L430 439L686
73Q727 15 777 15H828V0H455V15H555Q581 15 581 35Q581 47 570 64L359 367L271 280V73Q271 15 321 15H390V0H36Z" />
<glyph unicode="L" glyph-name="L" horiz-adv-x="677" d="M39 0V15H125Q171 15 175 73V603Q175 661 126 661H40V676H394V661H325Q275 661 275 603V68Q275 17 317 17H388Q474 17 541 85T632 264H645L637 0H39Z" />
<glyph unicode="M" glyph-name="M" horiz-adv-x="844" d="M820 676V661H747Q701 661 697 603V73Q697 45 710 30T747 15H828V0H479V15H547Q570 15 583 30T597 73V650Q597 660 591 660Q583 660 580 647L387 -4H377L180 651Q178 660 173 660Q164 660 164 642V172Q164
15 262 15H293V0H21V15H45Q98 15 123 52T148 172V589Q148 661 68 661H17V676H273L424 177L573 676H820Z" />
<glyph unicode="N" glyph-name="N" horiz-adv-x="792" d="M25 661V676H248L624 130V454Q624 572 572 624Q533 661 473 661H454V676H769V661H748Q696 661 668 633Q649 614 644 580T638 454V-23H608L191 583V218Q191 15 332 15H365V0H23V15H44Q101 15 137 49Q164
75 170 111T177 219V497Q177 661 62 661H25Z" />
<glyph unicode="O" glyph-name="O" horiz-adv-x="729" d="M489 -22T365 -22T149 84T57 334Q57 464 146 573T362 683Q449 683 521 631T633 499T673 334Q673 191 581 85ZM368 -5Q445 -5 493 43Q527 78 541 139T556 306Q556 424 545 508Q535 584 486 625T363 667Q320
667 288 654T235 617T202 565T184 501T176 435T174 369Q174 241 185 150Q194 91 238 43T368 -5Z" />
<glyph unicode="P" glyph-name="P" horiz-adv-x="677" d="M279 625V331H378Q464 331 500 370Q542 412 542 488Q542 658 383 658H318Q294 658 287 652T279 625ZM400 315H279Q276 248 276 179Q276 91 279 65T294 28Q307 15 328 15H397V0H44V15H128Q178 15 178 73V603Q178
661 129 661H42V676H375Q500 676 577 623T655 485Q655 414 581 365T400 315Z" />
<glyph unicode="Q" glyph-name="Q" horiz-adv-x="729" d="M666 55H682Q682 16 681 -7T669 -69T636 -130Q597 -171 535 -171Q492 -171 460 -153T414 -105Q402 -79 401 -23Q369 -25 364 -25Q241 -25 149 82T57 332Q57 471 149 577T362 683T575 577T667 329T577 82Q543
41 478 0Q479 -3 485 -18Q493 -41 497 -50T511 -80T529 -110T551 -128T580 -137Q600 -137 618 -121T647 -77Q666 -34 666 55ZM549 293Q549 419 538 509Q535 532 526 555T499 605T444 649T358 666Q286 666 239 617Q205 583 190 525T175 364V345Q178 174 194 114T279
11Q256 38 256 82Q256 117 283 143T347 170Q369 170 387 160T416 138T439 102T455 64T468 24Q497 49 512 72T538 150T549 293ZM274 81Q274 35 311 -2Q343 -9 364 -9Q376 -9 402 -6Q404 36 404 37Q404 150 341 150Q315 150 295 130T274 81Z" />
<glyph unicode="R" glyph-name="R" horiz-adv-x="792" d="M277 625V350H382Q462 350 509 393T556 510Q556 578 513 618T397 658H305Q277 658 277 625ZM345 334H277Q274 260 274 187Q274 93 277 67T292 28Q305 15 327 15H396V0H42V15H127Q150 15 163 30T177 73V604Q177
661 128 661H54V676H368Q500 676 583 629T667 506Q667 471 644 439T580 385Q530 358 427 337Q466 319 487 309T541 276T590 230T623 171T642 89Q645 53 652 39T677 25Q738 25 738 195V216H754V185Q754 116 746 82T715 24Q686 -5 646 -5Q603 -5 574 24Q554 44 545
72T531 154Q526 213 514 243T474 295Q423 334 345 334Z" />
<glyph unicode="S" glyph-name="S" horiz-adv-x="563" d="M49 300H65Q71 273 74 256T89 204T112 144T145 89T190 40T249 8T326 -6Q389 -6 429 31T470 125Q470 153 456 177T425 218T375 252T323 278T267 300Q158 341 122 371Q110 381 103 388Q53 441 53 506Q53
583 104 635T232 688Q284 688 325 667T413 596Q446 633 462 680H479V420H463Q453 488 429 537Q399 598 347 636T233 674Q179 674 140 640T100 558Q100 507 146 475T287 408Q396 368 435 337Q515 270 515 175Q515 90 460 34T318 -22Q201 -22 121 95Q91 51 66 -15H49V300Z"
/>
<glyph unicode="T" glyph-name="T" horiz-adv-x="677" d="M639 422H624Q620 477 600 529T550 616Q528 640 504 649T440 659Q408 659 400 654T390 627V73Q390 45 403 30T440 15H509V0H155V15H240Q263 15 276 30T290 73V627Q290 646 282 652T251 659Q223 659 205
656T161 640T118 603T83 533T54 422H38V676H639V422Z" />
<glyph unicode="U" glyph-name="U" horiz-adv-x="792" d="M771 676V661Q710 658 682 621T653 506V252Q653 132 582 56T399 -21Q346 -21 296 -2T214 50Q187 77 173 114T155 174T151 237V603Q151 661 102 661H22V676H386V661H299Q273 661 262 647T251 599V216Q251
106 297 54Q344 4 424 4Q519 4 578 73T637 255V483Q637 581 598 623Q583 639 557 650T508 661H484V676H771Z" />
<glyph unicode="V" glyph-name="V" horiz-adv-x="729" d="M19 661V676H349V661H269Q228 661 228 632Q228 620 231 613L397 120L533 473Q554 528 559 545T564 583Q564 618 539 639T472 661H434V676H711V661Q694 659 683 656T650 641T608 600T571 528L361 -19H340L127
613Q111 661 64 661H19Z" />
<glyph unicode="W" glyph-name="W" horiz-adv-x="1010" d="M18 661V676H300V661H266Q209 661 209 631Q209 619 211 613L352 124L494 541L480 596Q470 632 457 646T418 661H361V676H680V661H615Q571 661 571 629Q571 621 574 612L715 124L836 486Q854 540 854 587Q854
622 830 641T762 661H745V676H992V661Q949 658 918 624T853 489L682 -21H658L503 514L319 -21L297 -20L117 604Q101 661 51 661H18Z" />
<glyph unicode="X" glyph-name="X" horiz-adv-x="844" d="M56 661V676H396V661H327Q295 661 295 639Q295 629 304 615L442 403L540 537Q569 575 569 607Q569 633 551 647T501 661H460V676H754V661H729Q651 661 562 539L451 389L646 88Q675 43 693 29T750 15H807V0H448V15H524Q559
15 559 36Q559 43 552 53L389 305L273 148Q236 100 236 69Q236 43 255 29T309 15H375V0H37V15Q107 17 151 44T258 156L380 319L183 623Q158 661 119 661H56Z" />
<glyph unicode="Y" glyph-name="Y" horiz-adv-x="792" d="M579 484L458 251Q456 217 456 150Q456 120 456 107T457 74T462 47T471 30T486 18T508 15H576V0H222V15H307Q330 15 343 30T357 73V242L148 627Q130 661 86 661H39V676H378V661H296Q262 661 262 638Q262
626 270 612L452 277L585 528Q605 568 605 596Q605 627 583 644T523 661H469V676H772V661Q735 659 711 651T664 618T625 567T579 484Z" />
<glyph unicode="Z" glyph-name="Z" horiz-adv-x="615" d="M85 436L89 676H595L148 17H316Q368 17 418 51T501 140Q523 179 543 258H559L553 0H20L468 658H321Q237 658 178 599T99 436H85Z" />
<glyph unicode="[" glyph-name="bracketleft" horiz-adv-x="333" d="M278 676V658H119V-163H279V-181H64V676H278Z" />
<glyph unicode="\" glyph-name="backslash" horiz-adv-x="333" d="M77 683L283 -246H257L51 683H77Z" />
<glyph unicode="]" glyph-name="bracketright" horiz-adv-x="333" d="M55 658V676H269V-181H54V-163H214V658H55Z" />
<glyph unicode="^" glyph-name="asciicircum" horiz-adv-x="469" d="M229 676H243L451 326H406L235 612L64 326H18L229 676Z" />
<glyph unicode="_" glyph-name="underscore" horiz-adv-x="500" d="M500 -125H0V-75H500V-125Z" />
<glyph unicode="`" glyph-name="grave" horiz-adv-x="333" d="M241 505H222L133 578Q108 598 100 608T92 630T101 650T124 659Q140 659 152 647T185 601L241 505Z" />
<glyph unicode="a" glyph-name="a" horiz-adv-x="510" d="M312 157V238Q276 224 253 217Q228 210 214 204T177 185T143 150T131 99Q131 61 150 37T198 13Q244 13 278 56T312 157ZM481 181L495 182Q495 -9 400 -9Q338 -9 319 95Q294 40 261 16T178 -9Q127 -9 90
23T53 101Q53 140 84 171Q119 206 215 227Q275 242 312 257V329Q312 370 287 391T215 413Q183 413 154 399T125 369Q125 360 142 351Q173 335 173 307Q173 289 161 276T131 263Q111 263 96 280T81 320Q81 367 125 399T235 432Q387 432 387 296V105Q387 68 396 47T423
25Q448 25 461 56T479 161L481 181Z" />
<glyph unicode="b" glyph-name="b" horiz-adv-x="563" d="M307 420Q250 419 216 361T182 207Q182 88 227 42Q259 8 302 8Q332 8 354 22T387 56T405 109T413 168T415 230Q415 280 408 316T390 372T364 403T336 417T307 420ZM108 -5V602Q108 629 93 643T49 658H23V674Q95
676 162 685H184V329Q229 438 314 438Q387 438 445 372T504 224Q504 133 444 62T307 -9Q211 -9 156 106Q137 71 122 -5H108Z" />
<glyph unicode="c" glyph-name="c" horiz-adv-x="448" d="M398 163L413 162Q411 121 400 93Q379 45 338 19T252 -8Q173 -8 114 57T55 208Q55 297 114 364T254 431Q312 431 359 391T407 303Q407 276 393 260T356 243Q337 243 324 258T311 296Q311 324 341 339Q358
347 358 358Q358 378 325 396T256 414Q195 414 167 367T139 216Q139 116 170 63T259 10Q316 10 355 53T398 163Z" />
<glyph unicode="d" glyph-name="d" horiz-adv-x="563" d="M246 9Q311 11 350 70T389 226Q389 306 349 361T250 416Q208 416 178 385Q154 360 144 320T134 206Q134 131 148 89T193 26Q217 9 246 9ZM283 660V675Q303 675 322 675T356 676T384 677T408 679T425 680T436
682H440Q447 683 451 683H465V79Q465 15 523 15H554V0H474Q429 0 400 -9H390V112Q335 -9 238 -9Q162 -9 104 58T46 213Q46 304 103 368T240 433Q289 433 324 408T389 325V599Q389 627 373 643T329 660H283Z" />
<glyph unicode="e" glyph-name="e" horiz-adv-x="448" d="M124 249H306Q323 249 329 256T335 283Q335 345 306 382T228 420Q169 420 142 354Q127 316 124 249ZM410 162H426Q414 114 398 86Q371 41 329 16T238 -9Q153 -9 95 56T37 218Q37 308 92 371T227 435Q304
435 359 377T422 230H124Q124 206 124 190T127 144T138 95T159 54T195 22T248 11Q307 11 350 51T410 162Z" />
<glyph unicode="f" glyph-name="f" horiz-adv-x="333" d="M297 391H205Q204 330 204 207Q204 49 209 34Q217 15 245 15H278V0H53V15H89Q111 15 120 26T129 64V391H33V419H129V482Q129 588 179 638Q227 688 303 688Q352 688 382 669T412 619Q412 598 400 585T369
572Q353 572 340 584T327 613Q327 640 359 662Q338 671 313 671Q238 671 213 612Q203 588 203 541V419H297V391Z" />
<glyph unicode="g" glyph-name="g" horiz-adv-x="510" d="M238 127Q336 127 336 272Q336 420 238 420Q144 420 144 273Q144 127 238 127ZM323 -38Q197 -38 140 -59T82 -129Q82 -174 128 -202T249 -230Q335 -230 393 -194T452 -103Q452 -86 441 -71T412 -49Q384
-38 323 -38ZM141 -41L162 -35Q104 -23 81 -4T58 51Q58 78 70 95T103 119T140 127T176 129Q69 184 69 276Q69 337 121 386T239 436Q334 436 384 334Q380 435 443 435Q466 435 480 422T494 386Q494 346 465 346Q453 346 445 355T437 379Q437 381 440 393T443 408Q443
416 432 416Q418 416 409 400T400 361Q400 343 405 317T410 270Q410 202 357 157T222 112Q218 112 196 112T170 113Q83 113 83 70Q83 34 149 34Q159 34 221 37T296 41Q350 41 381 32T438 -3Q476 -38 476 -90Q476 -158 414 -202T253 -246Q160 -246 98 -213T36 -129Q36
-97 59 -78T141 -41Z" />
<glyph unicode="h" glyph-name="h" horiz-adv-x="563" d="M467 252V64Q467 37 476 26T507 15H540V0H318V15H353Q375 15 384 26T393 64V292Q393 347 373 378T316 409Q263 409 225 339T187 171V64Q187 37 196 26T228 15H260V0H38V15H73Q95 15 104 26T113 64V602Q113
627 98 642T59 658H45V674Q119 676 163 684H189V299Q218 369 251 400T331 432Q382 432 418 396Q467 347 467 252Z" />
<glyph unicode="i" glyph-name="i" horiz-adv-x="281" d="M153 569T133 569T99 583T84 618T98 652T133 667T167 653T182 618T168 584ZM159 429H172Q171 360 171 224Q171 49 176 34Q184 15 212 15H244V0H23V15H58Q80 15 89 26T98 64V359Q98 404 48 404H18V419Q63
419 105 422L159 429Z" />
<glyph unicode="j" glyph-name="j" horiz-adv-x="333" d="M177 571Q157 572 143 586T129 619Q129 639 143 653T177 668T211 654T226 619Q226 600 212 586T177 571ZM35 404V419Q134 415 173 423Q188 426 191 426H214V-90Q214 -155 180 -201T96 -247Q62 -247 36
-221T9 -161Q9 -138 20 -125T49 -111Q66 -111 76 -122T86 -151Q86 -171 65 -189Q54 -200 54 -206Q54 -216 65 -223T91 -231Q116 -231 127 -212T139 -150V353Q139 376 127 390T95 404H35Z" />
<glyph unicode="k" glyph-name="k" horiz-adv-x="563" d="M262 209L189 134Q188 51 193 33T229 15H261V0H38V15H73Q95 15 104 26T113 64V616Q113 640 102 650T65 661H32V676H87Q137 676 167 686H189V158L346 315Q371 340 371 364Q371 404 295 404H270V419H522V404Q486
401 455 386T378 325L316 262L465 58Q497 15 536 15H552V0H311V15H362Q384 15 384 33Q384 43 377 51L262 209Z" />
<glyph unicode="l" glyph-name="l" horiz-adv-x="281" d="M101 64V598Q101 653 58 653H21V669Q56 669 104 673L154 679H177Q175 503 175 302Q175 99 176 66T187 24Q198 15 217 15H249V0H26V15H61Q83 15 92 26T101 64Z" />
<glyph unicode="m" glyph-name="m" horiz-adv-x="844" d="M190 431V287Q236 436 336 436Q432 436 460 309Q512 437 606 437Q656 437 690 403Q729 363 734 277V64Q734 37 743 26T774 15H806V0H583V15H618Q640 15 649 26T658 64V290Q658 410 588 410Q535 410 499
350T462 201V64Q462 37 471 26T502 15H534V0H311V15H346Q368 15 377 26T386 64V292Q386 413 320 413Q264 413 227 339T190 152V64Q190 37 199 26T230 15H262V0H39V15H74Q96 15 105 26T114 64V356Q114 378 102 391T67 404H36V419H74Q90 419 125 423T172 431H190Z"
/>
<glyph unicode="n" glyph-name="n" horiz-adv-x="563" d="M186 429V304Q200 342 222 369T267 409T307 427T339 432Q395 432 429 398Q448 379 458 352T471 308T474 262V64Q474 37 483 26T514 15H547V0H323V15H358Q380 15 389 26T398 64V287Q398 349 380 378T324
407Q263 407 224 347T185 193V64Q185 37 194 26T225 15H257V0H34V15H69Q91 15 100 26T109 64V360Q109 404 58 404H31V419H65Q81 419 136 424Q144 425 151 426T162 428L166 429H186Z" />
<glyph unicode="o" glyph-name="o" horiz-adv-x="510" d="M250 -9Q164 -5 103 60T42 212Q42 300 105 368T250 437Q341 437 404 372T468 214Q468 118 398 52T250 -9ZM252 7Q322 7 353 56T384 218Q384 421 257 421Q189 421 158 371T126 210Q126 7 252 7Z" />
<glyph unicode="p" glyph-name="p" horiz-adv-x="563" d="M325 7Q433 7 433 238Q433 425 325 425Q265 425 227 365T188 211Q188 126 227 67T325 7ZM188 435V326Q237 441 328 441Q403 441 459 374T515 217Q515 126 459 59T327 -9Q242 -9 188 107Q187 55 187 -48Q187
-185 192 -200Q198 -218 228 -218H260V-233H37V-218H72Q94 -218 103 -207T112 -169V357Q112 409 55 409H10V424H35Q93 424 170 435H188Z" />
<glyph unicode="q" glyph-name="q" horiz-adv-x="563" d="M263 11Q330 13 369 72T409 229Q409 322 372 374T269 426Q226 426 195 395Q150 350 150 210Q150 122 178 67T263 11ZM464 437H480Q478 261 478 65Q478 -134 479 -167T490 -209Q500 -218 520 -218H552V-233H329V-218H364Q386
-218 395 -207T404 -169V104Q352 -9 255 -9Q182 -9 124 60T66 218Q66 308 126 375T268 442Q372 442 425 322Q453 357 464 437Z" />
<glyph unicode="r" glyph-name="r" horiz-adv-x="396" d="M122 64V359Q122 404 72 404H42V419Q87 419 129 422L183 429H196V315Q209 344 216 358T238 394T271 424T312 433Q348 433 370 411T393 354Q393 332 381 316T351 300Q333 300 322 312T310 345Q310 367 333
387Q344 397 344 402Q344 417 316 417Q284 417 259 394Q233 368 219 328T202 262T198 190V64Q198 37 207 26T238 15H270V0H47V15H82Q104 15 113 26T122 64Z" />
<glyph unicode="s" glyph-name="s" horiz-adv-x="396" d="M44 183H59Q79 96 121 54Q170 7 234 7Q272 7 298 28T325 81Q325 115 299 136T201 181Q159 194 133 206T97 225T73 245Q45 273 45 320Q45 369 78 403T160 438Q194 438 218 427T280 383Q304 403 312 433H328V265H314Q298
340 265 374Q219 422 165 422Q128 422 103 402T78 350Q78 327 98 309T139 283T197 264Q281 240 321 209T362 119Q362 64 324 28T227 -9Q153 -9 96 56Q81 38 57 -9H44V183Z" />
<glyph unicode="t" glyph-name="t" horiz-adv-x="396" d="M20 391V409Q90 433 121 484T165 615H185V419H324V391H184V91Q184 60 200 41T243 21Q344 21 345 228H359Q359 147 348 102T308 29Q273 -6 221 -6Q167 -6 138 25T108 113V391H20Z" />
<glyph unicode="u" glyph-name="u" horiz-adv-x="563" d="M20 404V419Q95 419 130 426Q150 430 157 430H180V101Q180 61 196 39T244 17Q299 17 339 79T379 228V356Q379 381 367 392T325 404H274V419H334Q371 419 419 429Q424 430 429 430H455V69Q455 40 467 28T509
15H529V0H427Q416 -1 405 -1Q381 -3 379 -3V119Q321 -8 224 -8Q173 -8 139 29T105 121V364Q105 380 92 392T62 404H20Z" />
<glyph unicode="v" glyph-name="v" horiz-adv-x="563" d="M30 404V419H266V404H220Q187 404 187 383Q187 374 190 365L300 82L373 256Q402 324 402 351Q402 404 329 404H306V419H543V404H516Q480 404 455 378T403 287L281 -9H259L120 345Q106 382 94 393T57 404H30Z" />
<glyph unicode="w" glyph-name="w" horiz-adv-x="729" d="M17 404V419H228V404H200Q172 404 172 389Q172 385 176 369L275 92L364 308L341 380Q337 394 329 399T300 404H272V419H497V404H451Q420 404 420 388Q420 379 423 367L508 97L595 314Q608 351 608 371Q608
404 561 404H545V419H713V404Q674 402 652 384T611 315L483 -9H463L371 284L251 -9H232L114 321Q94 379 83 391T39 404H17Z" />
<glyph unicode="x" glyph-name="x" horiz-adv-x="563" d="M43 404V419H269V404H236Q213 404 213 389Q213 380 222 367L300 257L369 341Q384 359 384 375Q384 404 345 404H313V419H516V404H496Q439 404 363 309L310 244L431 72Q456 37 471 26T508 15H529V0H300V15H324Q362
15 362 34Q362 42 354 52L261 185L193 103Q165 70 165 49Q165 15 232 15H251V0H35V15H42Q68 15 104 40T174 106L251 198L135 361Q105 404 77 404H43Z" />
<glyph unicode="y" glyph-name="y" horiz-adv-x="563" d="M15 404V419H270V404H216Q182 404 182 378Q182 375 184 367L310 64L401 283Q419 325 419 356Q419 404 360 404H331V419H539V404Q498 403 475 382T428 306L255 -110Q199 -243 105 -243Q67 -243 41 -220T14
-163Q14 -138 28 -123T66 -107Q86 -107 100 -123T114 -163Q114 -180 100 -197Q92 -206 92 -213Q92 -226 113 -226Q186 -226 241 -100L271 -32L120 332Q103 374 88 389T48 404H15Z" />
<glyph unicode="z" glyph-name="z" horiz-adv-x="448" d="M60 252V419H401L136 17H249Q334 17 371 93Q386 120 392 170H408V0H41V8L301 403H227Q160 403 124 367T76 252H60Z" />
<glyph unicode="{" glyph-name="braceleft" horiz-adv-x="480" d="M360 -168V-184Q300 -174 262 -123T223 -4Q223 26 230 68Q239 120 239 139Q239 177 216 204T156 238V257Q193 264 216 291T239 357Q239 377 230 427Q223 465 223 493Q223 567 260 618T360 680V664Q277
638 277 554Q277 533 286 481Q294 436 294 410Q294 358 265 314T186 247Q237 224 265 182T294 85Q294 60 286 15Q277 -37 277 -58Q277 -142 360 -168Z" />
<glyph unicode="|" glyph-name="bar" horiz-adv-x="496" d="M226 -250V750H269V-250H226Z" />
<glyph unicode="}" glyph-name="braceright" horiz-adv-x="480" d="M120 -184V-168Q203 -142 203 -58Q203 -37 194 15Q186 60 186 85Q186 139 214 181T294 247Q244 270 215 314T186 410Q186 436 194 481Q203 533 203 554Q203 638 120 664V680Q182 670 219 619T257
493Q257 465 250 427Q241 377 241 357Q241 319 264 292T324 257V238Q287 232 264 205T241 139Q241 120 250 68Q257 26 257 -4Q257 -72 219 -123T120 -184Z" />
<glyph unicode="~" glyph-name="asciitilde" horiz-adv-x="667" d="M94 255H73Q76 319 109 354Q141 388 184 388Q231 388 372 328Q446 296 480 296Q520 296 543 319T572 387H593Q592 329 560 292T477 254Q438 254 374 280L293 313Q214 344 184 344Q112 344 94 255Z" />
</font>
</defs>
</svg>
